<svg width="23" height="236" viewBox="0 0 23 236" fill="none" xmlns="http://www.w3.org/2000/svg">
<path d="M17 7.5C17 11.6421 13.6421 15 9.5 15C5.35786 15 2 11.6421 2 7.5C2 3.35786 5.35786 0 9.5 0C13.6421 0 17 3.35786 17 7.5Z" fill="#FBED27"/>
<path d="M19 228.5C19 232.642 15.6421 236 11.5 236C7.35786 236 4 232.642 4 228.5C4 224.358 7.35786 221 11.5 221C15.6421 221 19 224.358 19 228.5Z" fill="#FBED27"/>
<path d="M10.4682 222.066C11.0595 222.646 12.0092 222.637 12.5895 222.046L22.0449 212.41C22.6252 211.819 22.6162 210.869 22.0249 210.289C21.4336 209.709 20.4839 209.718 19.9037 210.309L11.4988 218.874L2.93389 210.469C2.3426 209.889 1.3929 209.898 0.812664 210.489C0.232429 211.08 0.241389 212.03 0.832675 212.61L10.4682 222.066ZM8.00005 7.00944L10.0189 221.009L13.0188 220.981L10.9999 6.98113L8.00005 7.00944Z" fill="#FBED27"/>
</svg>
