<svg width="38" height="37" viewBox="0 0 38 37" fill="none" xmlns="http://www.w3.org/2000/svg">
<path d="M16.0621 14C15.8941 14 15.7447 13.9347 15.6141 13.804C15.4834 13.6547 15.4181 13.496 15.4181 13.328C15.4181 13.0853 15.5114 12.8987 15.6981 12.768C15.8474 12.6373 16.0154 12.572 16.2021 12.572C16.6314 12.572 16.8461 12.7587 16.8461 13.132C16.8461 13.7107 16.5847 14 16.0621 14ZM2.93006 30.352C2.05273 30.352 1.36206 30.128 0.858062 29.68C0.335395 29.2507 0.0740616 28.6907 0.0740616 28C0.0740616 27.216 0.484728 26.3853 1.30606 25.508C2.22073 24.5373 3.51806 23.6787 5.19806 22.932C7.10206 22.0733 9.30473 21.3453 11.8061 20.748C11.9927 20.2067 12.1421 19.7493 12.2541 19.376C12.3847 19.0027 12.4874 18.7227 12.5621 18.536C12.9167 17.6027 13.2434 16.9867 13.5421 16.688C13.7661 16.464 14.0647 16.352 14.4381 16.352C14.8114 16.352 14.9981 16.436 14.9981 16.604C14.9981 16.6413 14.9794 16.6787 14.9421 16.716C14.7367 16.94 14.4941 17.276 14.2141 17.724C13.9527 18.1533 13.7007 18.6107 13.4581 19.096C13.2341 19.5813 13.0474 20.0387 12.8981 20.468C13.0474 20.4307 13.1781 20.412 13.2901 20.412C13.4207 20.412 13.5514 20.412 13.6821 20.412C14.8767 20.412 15.4741 20.7107 15.4741 21.308C15.4741 21.6253 15.2967 21.9333 14.9421 22.232C14.9234 22.288 14.8861 22.316 14.8301 22.316C14.7554 22.316 14.7181 22.288 14.7181 22.232C14.7181 22.1573 14.7461 22.1107 14.8021 22.092C15.0261 21.8307 15.1381 21.616 15.1381 21.448C15.1381 21.0747 14.7647 20.888 14.0181 20.888L12.6181 21.112C11.5541 23.6693 10.2101 25.788 8.58606 27.468C6.7194 29.3907 4.83406 30.352 2.93006 30.352ZM2.87406 29.792C3.56473 29.792 4.3954 29.568 5.36606 29.12C6.84073 28.448 8.12873 27.3467 9.23006 25.816C10.0327 24.6773 10.8447 23.1467 11.6661 21.224C10.7327 21.4667 9.9114 21.6907 9.20206 21.896C8.47406 22.12 7.8674 22.3253 7.38206 22.512C6.56073 22.8107 5.8234 23.1187 5.17006 23.436C4.49806 23.772 3.91006 24.1173 3.40606 24.472C3.0514 24.7333 2.73406 25.0133 2.45406 25.312C2.1554 25.6107 1.9034 25.9373 1.69806 26.292C1.30606 26.9267 1.11006 27.552 1.11006 28.168C1.11006 29.2507 1.69806 29.792 2.87406 29.792ZM17.5537 21.252C16.4711 21.252 15.9297 20.6547 15.9297 19.46C15.9297 19.0493 16.0791 18.536 16.3777 17.92C16.6764 17.2853 17.0404 16.7627 17.4697 16.352C17.9924 15.8667 18.4684 15.624 18.8977 15.624C19.4764 15.624 19.7657 15.9133 19.7657 16.492C19.7657 16.8653 19.6164 17.2387 19.3177 17.612C18.7577 18.284 17.9737 18.7413 16.9657 18.984C16.9471 19.1147 16.9284 19.236 16.9097 19.348C16.9097 19.4413 16.9097 19.5347 16.9097 19.628C16.9097 20.412 17.2737 20.804 18.0017 20.804C18.5804 20.804 19.3084 20.5613 20.1857 20.076C20.5591 19.8707 20.8951 19.656 21.1937 19.432C21.4924 19.208 21.7444 18.9933 21.9497 18.788C22.1737 18.5267 22.2857 18.508 22.2857 18.732C22.2857 18.8253 22.2484 18.9093 22.1737 18.984C21.9684 19.2267 21.6977 19.4787 21.3617 19.74C21.0444 19.9827 20.6524 20.2253 20.1857 20.468C19.1964 20.9907 18.3191 21.252 17.5537 21.252ZM17.0777 18.676C17.9924 18.3773 18.6177 17.9293 18.9537 17.332C19.1777 16.9587 19.2897 16.6413 19.2897 16.38C19.2897 16.1747 19.2244 16.072 19.0937 16.072C18.9444 16.072 18.7391 16.212 18.4777 16.492C18.2164 16.7533 17.9551 17.08 17.6937 17.472C17.4511 17.864 17.2457 18.2653 17.0777 18.676Z" fill="white"/>
<path d="M25.712 32.0123C25.232 32.0123 24.836 31.7123 24.524 31.1123C24.236 30.5363 24.092 29.7803 24.092 28.8443C24.092 27.9803 24.584 26.0123 25.568 22.9403C25.4 22.9403 25.088 22.9763 24.632 23.0483C24.176 23.0963 23.564 23.1803 22.796 23.3003C22.052 23.4203 21.44 23.5283 20.96 23.6243C20.504 23.6963 20.18 23.7563 19.988 23.8043C16.076 27.2123 13.004 28.9163 10.772 28.9163C9.836 28.9163 9.116 28.6043 8.612 27.9803C8.66 27.9323 8.696 27.9203 8.72 27.9443C8.744 27.9443 8.768 27.9443 8.792 27.9443L9.836 28.1243C11.588 28.1243 14.252 26.7323 17.828 23.9483V23.9123L15.884 23.9843C15.308 24.0083 14.804 23.8523 14.372 23.5163C13.964 23.1803 13.76 22.7723 13.76 22.2923L13.832 22.2203C13.832 22.1963 13.844 22.1843 13.868 22.1843L13.976 22.2563C14.12 22.3763 14.432 22.4723 14.912 22.5443C15.392 22.6163 16.076 22.6403 16.964 22.6163L18.224 22.5803H19.412C20.492 21.7163 21.8 20.5163 23.336 18.9803C24.056 18.2363 24.692 17.5523 25.244 16.9283C25.82 16.3043 26.264 15.7643 26.576 15.3083L27.692 13.6883C27.788 13.6883 27.836 13.8203 27.836 14.0843C27.836 15.2363 26.984 16.7123 25.28 18.5123L21.536 22.4723L25.82 22.0403C26.012 21.6563 26.156 21.3443 26.252 21.1043C26.372 20.8643 26.504 20.6003 26.648 20.3123C26.792 20.0243 26.996 19.6283 27.26 19.1243C27.524 18.5963 27.884 17.8883 28.34 17.0003L30.032 13.7603L30.716 12.4283C30.956 11.9723 31.22 11.5523 31.508 11.1683C31.796 10.7843 32.06 10.5923 32.3 10.5923C32.564 10.5923 32.876 10.6763 33.236 10.8443C33.62 10.9883 33.812 11.1443 33.812 11.3123C33.5 11.7683 33.152 12.3083 32.768 12.9323C32.408 13.5563 32.012 14.2283 31.58 14.9483C27.332 22.0283 25.208 27.0083 25.208 29.8883C25.208 30.0083 25.232 30.1883 25.28 30.4283C25.328 30.6923 25.4 30.9323 25.496 31.1483C25.616 31.4603 25.688 31.6763 25.712 31.7963C25.76 31.9403 25.76 32.0123 25.712 32.0123Z" fill="white"/>
</svg>
